<svg xmlns="http://www.w3.org/2000/svg" width="14.979" height="14.164" viewBox="0 0 14.979 14.164">
  <g id="Group_3533" data-name="Group 3533" transform="translate(-91.026 32.227)">
    <path id="Icon_material-attach-money" data-name="Icon material-attach-money" d="M106.692-23.955c-1.239-.327-1.636-.661-1.634-1.18,0-.6.555-1.006,1.478-1,.972,0,1.331.469,1.361,1.152l1.207,0a2.177,2.177,0,0,0-1.746-2.087l0-1.2-1.638-.006,0,1.18a2.131,2.131,0,0,0-1.918,1.965c0,1.26,1.036,1.893,2.559,2.264,1.364.332,1.636.812,1.634,1.322,0,.377-.271.977-1.478.973-1.125,0-1.566-.51-1.623-1.152l-1.2,0a2.29,2.29,0,0,0,2,2.1l0,1.185,1.638.005,0-1.174c1.066-.2,1.915-.813,1.918-1.932C109.255-23.094,107.93-23.627,106.692-23.955Z" transform="translate(-5.345 -1.616)" fill="#fff"/>
    <path id="Icon_material-arrow-forward" data-name="Icon material-arrow-forward" d="M93.773-24.828l-.484.48,1.9,1.918-4.161-.014,0,.684,4.161.014L93.274-19.84l.48.484L96.5-22.083Z" transform="translate(0 -3.07)" fill="#fff"/>
    <path id="Path_1349" data-name="Path 1349" d="M105.99-32.058,93.276-32.1a.579.579,0,0,0-.58.576l-.011,3.081.578,0,.011-3.081h0v0l12.714.044-.044,12.715L93.23-18.809l.01-3.08-.578,0-.01,3.081a.578.578,0,0,0,.576.58l12.715.044a.577.577,0,0,0,.58-.576l.044-12.715A.579.579,0,0,0,105.99-32.058Z" transform="translate(-0.686)" fill="#fff" stroke="#fff" stroke-width="0.25"/>
  </g>
</svg>
