<svg xmlns="http://www.w3.org/2000/svg" width="16" height="16" viewBox="0 0 16 16"><defs><style>.a{fill:#d0d0d0;}</style></defs><path class="a" d="M6.067,0H1.148A1.149,1.149,0,0,0,0,1.148V4.1A1.149,1.149,0,0,0,1.148,5.247H6.067A1.149,1.149,0,0,0,7.215,4.1V1.148A1.149,1.149,0,0,0,6.067,0Zm0,0"/><path class="a" d="M6.067,213.332H1.148A1.149,1.149,0,0,0,0,214.48v6.887a1.149,1.149,0,0,0,1.148,1.148H6.067a1.149,1.149,0,0,0,1.148-1.148V214.48A1.149,1.149,0,0,0,6.067,213.332Zm0,0" transform="translate(0 -206.515)"/><path class="a" d="M283.4,341.332H278.48a1.149,1.149,0,0,0-1.148,1.148v2.952a1.149,1.149,0,0,0,1.148,1.148H283.4a1.149,1.149,0,0,0,1.148-1.148V342.48A1.149,1.149,0,0,0,283.4,341.332Zm0,0" transform="translate(-268.547 -330.579)"/><path class="a" d="M283.4,0H278.48a1.149,1.149,0,0,0-1.148,1.148V8.035a1.149,1.149,0,0,0,1.148,1.148H283.4a1.149,1.149,0,0,0,1.148-1.148V1.148A1.149,1.149,0,0,0,283.4,0Zm0,0" transform="translate(-268.547)"/></svg>