<svg xmlns="http://www.w3.org/2000/svg" width="16" height="16" viewBox="0 0 16 16"><defs><style>.a{fill:#d0d0d0;}</style></defs><path class="a" d="M8,0a8,8,0,1,0,8,8A8,8,0,0,0,8,0Zm.484,11.564v.926a.248.248,0,0,1-.257.25H7.61a.251.251,0,0,1-.261-.25v-.845a5.3,5.3,0,0,1-1.575-.312.494.494,0,0,1-.3-.585l.1-.392a.495.495,0,0,1,.658-.338,3.972,3.972,0,0,0,1.423.276c.664,0,1.118-.256,1.118-.722,0-.442-.373-.722-1.235-1.013-1.246-.419-2.1-1-2.1-2.131A2.155,2.155,0,0,1,7.4,4.355V3.51a.278.278,0,0,1,.268-.274h.617a.263.263,0,0,1,.251.274v.763a4.6,4.6,0,0,1,1.261.21.5.5,0,0,1,.329.593l-.088.351a.494.494,0,0,1-.639.345,3.565,3.565,0,0,0-1.177-.195c-.757,0-1,.326-1,.652,0,.384.408.629,1.4,1C10,7.721,10.56,8.361,10.56,9.409A2.231,2.231,0,0,1,8.484,11.564Z"/></svg>