<svg xmlns="http://www.w3.org/2000/svg" width="135" height="26" viewBox="0 0 135 26">
  <g id="Group_1275" data-name="Group 1275" transform="translate(-16 -20)">
    <g id="Group_2" data-name="Group 2" transform="translate(16 21)">
      <path id="Path_251" data-name="Path 251" d="M96.747,39.918,90.724,28,84.7,39.918a2.139,2.139,0,0,1,3.15,1.639c.553,2.063-1.418,4.66-1.418,4.66a4.751,4.751,0,0,0,1.584-.682l.147,1.087.976-.792.295,1.234.921-.755.35.884.35-.884.921.755.295-1.234.976.792.147-1.087a4.97,4.97,0,0,0,1.584.682s-1.953-2.616-1.418-4.66A2.173,2.173,0,0,1,96.747,39.918Z" transform="translate(-69.098 -22.842)" fill="#d6d6d6"/>
      <path id="Path_252" data-name="Path 252" d="M139.2,9.689S153.126,7.368,153.31,0a4.206,4.206,0,0,1-.645,5.158s1.787-.368,2.782-2.966A4.6,4.6,0,0,1,153.292,6.8a3.8,3.8,0,0,0,3.242-1.639,4.4,4.4,0,0,1-2.56,3.463,3.188,3.188,0,0,0,2.745-.461s-.129,1.455-2.56,2.505a1.453,1.453,0,0,0,1.6,0s-.866,3.887-12.655,7.074Z" transform="translate(-113.558)" fill="#d6d6d6"/>
      <path id="Path_253" data-name="Path 253" d="M17.518,9.689S3.592,7.368,3.408,0a4.206,4.206,0,0,0,.645,5.158S2.266,4.789,1.271,2.192A4.6,4.6,0,0,0,3.426,6.8,3.8,3.8,0,0,1,.184,5.158a4.4,4.4,0,0,0,2.56,3.463A3.188,3.188,0,0,1,0,8.16s.129,1.455,2.56,2.505a1.453,1.453,0,0,1-1.6,0s.866,3.887,12.655,7.074Z" fill="#d6d6d6"/>
    </g>
    <text id="Falcon" transform="translate(70 41)" fill="#fff" font-size="20" font-family="Futura-Medium, Futura" font-weight="500"><tspan x="0" y="0">FALCON</tspan></text>
  </g>
</svg>
