<svg xmlns="http://www.w3.org/2000/svg" width="19.306" height="18.827" viewBox="0 0 19.306 18.827"><defs><style>.a{fill:#fff;}</style></defs><g transform="translate(-1.75 -2)"><path class="a" d="M11.633,2A9.234,9.234,0,0,0,4.593,5.257L3.313,4.118a.942.942,0,0,0-1.563.706V8.589a.941.941,0,0,0,.941.941H6.927a.942.942,0,0,0,.621-1.647L6,6.5a7.4,7.4,0,0,1,5.648-2.617,7.53,7.53,0,1,1-7.1,10.044.942.942,0,0,0-1.779.621A9.413,9.413,0,1,0,11.633,2Z" transform="translate(0 0)"/><path class="a" d="M15.706,15.472a.941.941,0,0,1-.565-.188l-3.765-2.824A.941.941,0,0,1,11,11.706V7.941a.941.941,0,0,1,1.883,0v3.294l3.389,2.541a.941.941,0,0,1-.565,1.694Z" transform="translate(-0.543 -0.294)"/></g></svg>