<svg xmlns="http://www.w3.org/2000/svg" width="16" height="13.465" viewBox="0 0 16 13.465"><defs><style>.a{fill:#d0d0d0;}</style></defs><g transform="translate(0 -6.348)"><path class="a" d="M9.655,8.659a2.907,2.907,0,0,1,1.353,2.16,2.346,2.346,0,1,0-1.353-2.16Zm-1.537,4.8a2.346,2.346,0,1,0-2.347-2.346A2.347,2.347,0,0,0,8.118,13.464Zm1,.16H7.122a3.008,3.008,0,0,0-3,3v2.435l.006.038.168.053a13.676,13.676,0,0,0,4.085.659,8.387,8.387,0,0,0,3.567-.67l.157-.079h.017V16.628A3.007,3.007,0,0,0,9.113,13.624ZM13,11.2H11.02a2.892,2.892,0,0,1-.893,2.014,3.57,3.57,0,0,1,2.55,3.416v.75a8.085,8.085,0,0,0,3.149-.662l.157-.079H16V14.205A3.008,3.008,0,0,0,13,11.2Zm-9-.16a2.331,2.331,0,0,0,1.248-.362A2.9,2.9,0,0,1,6.34,8.827c0-.044.007-.087.007-.132A2.346,2.346,0,1,0,4,11.041Zm2.107,2.174a2.894,2.894,0,0,1-.892-2C5.143,11.207,5.07,11.2,5,11.2H3a3.008,3.008,0,0,0-3,3v2.435l.006.038.168.053a14.087,14.087,0,0,0,3.384.636v-.735A3.571,3.571,0,0,1,6.108,13.215Z"/></g></svg>