<svg xmlns="http://www.w3.org/2000/svg" width="15" height="14.997" viewBox="0 0 15 14.997">
  <path id="Path_258" data-name="Path 258" d="M1.663,13.881a6.162,6.162,0,0,0,.551,1.309l-.665.839a.689.689,0,0,0,.052.912l1.146,1.146a.686.686,0,0,0,.912.052l.833-.66a6.056,6.056,0,0,0,1.36.576l.125,1.072a.687.687,0,0,0,.681.608H8.279a.687.687,0,0,0,.681-.608l.119-1.034a6.125,6.125,0,0,0,1.458-.589l.806.638a.689.689,0,0,0,.912-.052L13.4,16.943a.686.686,0,0,0,.052-.912l-.627-.8a5.983,5.983,0,0,0,.6-1.433l.967-.111A.687.687,0,0,0,15,13.009V11.389a.687.687,0,0,0-.608-.681L13.44,10.6a6.022,6.022,0,0,0-.576-1.417l.586-.741a.689.689,0,0,0-.052-.912L12.256,6.382a.686.686,0,0,0-.912-.052l-.719.57a6.042,6.042,0,0,0-1.491-.624l-.109-.931a.687.687,0,0,0-.681-.608H6.723a.687.687,0,0,0-.681.608l-.109.931A6.017,6.017,0,0,0,4.4,6.923l-.747-.592a.689.689,0,0,0-.912.052L1.6,7.528a.686.686,0,0,0-.052.912l.624.79a5.906,5.906,0,0,0-.565,1.431l-1,.114A.687.687,0,0,0,0,11.457v1.621a.687.687,0,0,0,.608.681ZM7.535,9.5a2.68,2.68,0,1,1-2.68,2.68A2.683,2.683,0,0,1,7.535,9.5Z" transform="translate(-0.001 -4.737)" fill="#c9c9c9"/>
</svg>
