<svg xmlns="http://www.w3.org/2000/svg" width="18.144" height="17.291" viewBox="0 0 18.144 17.291"><defs><style>.a{fill:#fff;}</style></defs><g transform="matrix(0.602, 0.799, -0.799, 0.602, -31.195, -57.101)"><g transform="translate(71.498)"><path class="a" d="M243.023,332.453a.515.515,0,1,0,.729,0A.512.512,0,0,0,243.023,332.453Z" transform="translate(-237.739 -322.31)"/><path class="a" d="M146.952,270.625a.515.515,0,1,0,0,.729A.518.518,0,0,0,146.952,270.625Z" transform="translate(-143.839 -262.343)"/><path class="a" d="M81.892.939C81.749.594,81.313.012,79.986,0h-.042A7.45,7.45,0,0,0,77.2.609c-.176.073-.345.148-.509.23L76.686.83a1.407,1.407,0,0,0-1.961,0l-2.673,2.6A1.82,1.82,0,0,0,71.5,4.736v8.8a1.285,1.285,0,0,0,1.285,1.285h5.848a1.285,1.285,0,0,0,1.285-1.285v-8.8a1.783,1.783,0,0,0-.152-.724A6.573,6.573,0,0,0,81.2,2.948C82.131,2.006,82.034,1.285,81.892.939ZM73.1,8.657a1.112,1.112,0,1,1,1.112,1.112A1.115,1.115,0,0,1,73.1,8.657Zm.945,2.909a.273.273,0,0,1-.036-.382l2.921-3.518a.271.271,0,0,1,.418.345L74.431,11.53A.273.273,0,0,1,74.049,11.566Zm3.1.079a1.112,1.112,0,1,1,1.112-1.112A1.115,1.115,0,0,1,77.152,11.645Zm1.233-8.169a7.268,7.268,0,0,1-1.651.473c0,.024,0,.045,0,.07a1.064,1.064,0,1,1-.209-.633A7.491,7.491,0,0,0,78.08,2.93c.185-.076.358-.155.521-.236L77.528,1.648c.03-.012.061-.024.091-.039a6.454,6.454,0,0,1,2.327-.527h.03c.639.006.879.179.915.27C81,1.63,80.292,2.691,78.386,3.476Z" transform="translate(-71.498)"/></g></g></svg>