<svg xmlns="http://www.w3.org/2000/svg" width="19.591" height="18.671" viewBox="0 0 19.591 18.671"><defs><style>.a{fill:#c9c9c9;}</style></defs><g transform="matrix(0.602, 0.799, -0.799, 0.602, -30.25, -57.101)"><g transform="translate(71.498)"><path class="a" d="M243.035,332.465a.556.556,0,1,0,.787,0A.552.552,0,0,0,243.035,332.465Z" transform="translate(-237.33 -321.513)"/><path class="a" d="M147.022,270.637a.556.556,0,1,0,0,.787A.559.559,0,0,0,147.022,270.637Z" transform="translate(-143.661 -261.695)"/><path class="a" d="M82.721,1.014C82.567.641,82.1.013,80.663,0h-.046a8.044,8.044,0,0,0-2.958.658c-.19.079-.373.16-.55.249L77.1.9a1.519,1.519,0,0,0-2.117,0L72.1,3.7a1.965,1.965,0,0,0-.6,1.413v9.5A1.388,1.388,0,0,0,72.885,16H79.2a1.388,1.388,0,0,0,1.387-1.387v-9.5a1.925,1.925,0,0,0-.164-.782,7.1,7.1,0,0,0,1.554-1.148C82.979,2.166,82.875,1.387,82.721,1.014ZM73.232,9.348a1.2,1.2,0,1,1,1.2,1.2A1.2,1.2,0,0,1,73.232,9.348Zm1.021,3.141a.3.3,0,0,1-.039-.412l3.154-3.8a.293.293,0,0,1,.452.373l-3.154,3.8A.3.3,0,0,1,74.253,12.489Zm3.351.085a1.2,1.2,0,1,1,1.2-1.2A1.2,1.2,0,0,1,77.6,12.574Zm1.332-8.821a7.848,7.848,0,0,1-1.783.51c0,.026,0,.049,0,.075a1.148,1.148,0,1,1-.226-.684A8.089,8.089,0,0,0,78.6,3.164c.2-.082.386-.167.563-.255L78.009,1.78c.033-.013.065-.026.1-.043a6.969,6.969,0,0,1,2.513-.569h.033c.69.007.949.193.988.291C81.762,1.76,80.993,2.906,78.935,3.753Z" transform="translate(-71.498)"/></g></g></svg>